<?xml version="1.0" encoding="UTF-8" standalone="no"?>
<!-- Created with Inkscape (http://www.inkscape.org/) -->

<svg
   width="161.97331mm"
   height="76.155556mm"
   viewBox="0 0 161.97331 76.155556"
   version="1.1"
   id="svg1"
   xml:space="preserve"
   xmlns:inkscape="http://www.inkscape.org/namespaces/inkscape"
   xmlns:sodipodi="http://sodipodi.sourceforge.net/DTD/sodipodi-0.dtd"
   xmlns="http://www.w3.org/2000/svg"
   xmlns:svg="http://www.w3.org/2000/svg"><sodipodi:namedview
     id="namedview1"
     pagecolor="#000000"
     bordercolor="#000000"
     borderopacity="0.25"
     inkscape:showpageshadow="2"
     inkscape:pageopacity="0.0"
     inkscape:pagecheckerboard="0"
     inkscape:deskcolor="#d1d1d1"
     inkscape:document-units="mm" /><defs
     id="defs1" /><g
     inkscape:label="Layer 1"
     inkscape:groupmode="layer"
     id="layer1"
     transform="translate(-23.281159,-28.575734)"><path
       style="fill:#ffffff"
       d="m 61.119533,104.56181 c -0.21761,-0.0894 -0.85469,-0.7303 -1.41574,-1.42418 -2.05481,-2.54133 -5.79407,-5.87408 -8.0444,-7.16988 -1.28594,-0.74047 -3.49977,-1.47603 -5.15275,-1.71203 -1.62062,-0.23138 -2.38735,-0.64209 -2.79248,-1.49585 -0.34811,-0.73357 -0.39403,-2.23067 -0.0886,-2.8874 0.94701,-2.03611 4.87817,-1.7193 9.92716,0.80002 l 2.32444,1.15985 v -2.1325 c 0,-1.17287 0.0922,-2.82885 0.20488,-3.67995 0.25043,-1.89146 1.26919,-6.552832 1.87432,-8.576 0.24502,-0.819201 0.82072,-3.088679 1.27933,-5.043285 0.82035,-3.496399 0.82823,-3.564223 0.48736,-4.197181 -0.72971,-1.354987 -1.89987,-1.265114 -8.59189,0.659891 -6.75587,1.943368 -8.81195,2.332366 -12.26692,2.320824 -4.97469,-0.01662 -7.75371,-1.077667 -10.78144,-4.116424 -2.29754,-2.305901 -3.53456,-4.426824 -4.38673,-7.52118 -0.39811,-1.445615 -0.54638,-5.429233 -0.28179,-7.571002 0.3906,-3.161852 1.73776,-6.698641 3.99138,-10.478847 1.46403,-2.455765 1.8396,-2.820649 2.90322,-2.820649 1.35959,0 1.6315,0.236758 1.6315,1.420595 0,0.892348 -0.14176,1.240392 -1.20764,2.965025 -4.93742,7.988903 -5.00655,15.296908 -0.19299,20.401002 2.40258,2.547603 5.20575,3.653729 8.71837,3.440256 2.28549,-0.138897 4.47172,-0.670504 10.28203,-2.500196 5.55165,-1.748237 7.09887,-2.073008 9.19362,-1.929796 2.01634,0.137851 3.22451,0.562778 4.30356,1.5136 1.40712,1.239913 1.7941,2.156525 1.8957,4.490203 0.098,2.25037 -0.40837,5.184448 -2.02647,11.742482 -1.69986,6.889432 -1.91108,9.982622 -0.98275,14.391742 0.0745,0.35361 0.19101,0.64028 0.25901,0.63705 0.068,-0.003 0.43521,-0.55313 0.81602,-1.22198 0.77431,-1.35997 3.42019,-4.26759 4.4788,-4.92185 0.54881,-0.33918 0.8965,-0.40656 1.69963,-0.32939 1.30167,0.12507 1.59533,0.49369 1.48771,1.86745 -0.0738,0.94226 -0.17123,1.11573 -1.18897,2.11733 -1.85827,1.82883 -3.15556,3.99793 -3.73973,6.25299 -0.0987,0.38081 -0.25732,1.51926 -0.35261,2.5299 -0.18697,1.98297 -0.50397,2.70776 -1.32001,3.01801 -0.59756,0.22719 -2.39252,0.22801 -2.94415,10e-4 z M 77.242243,77.251839 V 64.591063 h 11.5519 c 11.0108,0 11.612177,0.01862 12.838797,0.397483 2.64993,0.818479 5.00871,2.969782 6.3459,5.787704 0.93042,1.960741 1.31098,3.840514 1.31098,6.475589 0,2.62262 -0.38112,4.518677 -1.29233,6.429301 -1.35613,2.84351 -3.72461,5.0186 -6.3467,5.82848 -1.24956,0.38595 -1.793417,0.40299 -12.856647,0.40299 h -11.5519 z m 20.5472,3.382701 c 0.84852,-0.605185 1.60467,-2.203217 1.60722,-3.396685 0.002,-1.100214 -0.83384,-2.848676 -1.64414,-3.437844 -0.52222,-0.379706 -0.88096,-0.409538 -5.58855,-0.464725 l -5.0305,-0.05897 v 3.975525 3.975525 l 4.99507,-0.05897 c 4.91074,-0.05798 5.00631,-0.06699 5.6609,-0.533851 z M 110.87242,77.251839 V 64.591063 h 4.94562 4.94561 V 77.251839 89.91261 h -4.94561 -4.94562 z m 13.6499,-0.0056 V 64.579817 l 12.61132,0.05508 12.61132,0.05508 1.18695,0.580212 c 2.20794,1.079301 4.10482,3.442045 4.77522,5.948001 0.14554,0.544017 0.26461,1.923844 0.26461,3.066281 0,1.142437 -0.11907,2.522264 -0.26461,3.066282 -0.6704,2.505956 -2.56728,4.868697 -4.77522,5.947997 l -1.18695,0.58022 -7.6657,0.0582 -7.66571,0.0582 v 2.95866 2.95866 h -4.94561 -4.94562 z m 20.98463,-1.957405 c 0.31804,-0.318042 0.57826,-0.769995 0.57826,-1.004341 0,-0.234346 -0.26022,-0.686299 -0.57826,-1.00434 l -0.57826,-0.578257 h -5.25757 -5.25757 v 1.582597 1.582597 h 5.25757 5.25757 z m 19.17377,11.003776 v -3.62004 l -0.69238,0.0808 -0.69239,0.0808 v -9.022659 -9.022664 h 4.35214 4.35215 v 6.515775 6.515776 l 0.69238,-0.112359 0.69239,-0.112359 v 6.15845 6.15844 h -4.35214 -4.35215 z m 11.86948,-2.3739 v -5.993927 l -0.69238,0.08083 -0.69239,0.08083 v -6.648768 -6.648768 h 4.35214 4.35214 v 3.916769 3.91677 l 0.69239,-0.08083 0.69239,-0.08083 v 8.725927 8.725927 h -4.35215 -4.35214 z M 35.896893,41.247757 V 28.586981 h 11.5519 c 11.0108,0 11.61218,0.01862 12.83881,0.397484 3.52974,1.090226 6.42014,4.493137 7.34092,8.642588 0.41188,1.856089 0.41188,5.385319 0,7.241408 -0.91316,4.115083 -3.8333,7.559194 -7.32308,8.637076 -1.24955,0.385948 -1.79342,0.402996 -12.85665,0.402996 h -11.5519 z m 20.5472,3.382701 c 0.84852,-0.605184 1.60467,-2.203216 1.60722,-3.396684 0.002,-1.100214 -0.83384,-2.848676 -1.64414,-3.437844 -0.52222,-0.379707 -0.88096,-0.409538 -5.58855,-0.464725 l -5.0305,-0.05897 v 3.975525 3.975525 l 4.99507,-0.05897 c 4.91074,-0.05798 5.00631,-0.06699 5.6609,-0.533852 z m 13.08299,-3.382701 V 28.586981 h 13.84772 13.84773 v 3.560844 3.560843 h -8.90211 -8.90211 v 1.186948 1.186947 h 8.90211 8.90211 v 3.264107 3.264106 h -8.90211 -8.90211 v 1.088035 1.088036 h 8.90211 8.90211 v 3.560843 3.560843 h -13.84773 -13.84772 z m 31.256287,0 V 28.586981 h 13.84772 13.84772 v 3.560844 3.560843 h -8.9021 -8.90211 v 1.186948 1.186947 h 8.90211 8.9021 v 3.264107 3.264106 h -8.9021 -8.90211 v 1.088035 1.088036 h 8.90211 8.9021 v 3.560843 3.560843 h -13.84772 -13.84772 z m 31.25629,-0.0056 V 28.575735 l 12.61132,0.05508 12.61132,0.05508 1.18695,0.580211 c 2.20794,1.079301 4.10482,3.442045 4.77522,5.948001 0.14553,0.544018 0.26461,1.923845 0.26461,3.066282 0,1.142437 -0.11908,2.522264 -0.26461,3.066282 -0.6704,2.505955 -2.56728,4.8687 -4.77522,5.948 l -1.18695,0.580212 -7.66571,0.05816 -7.6657,0.05816 v 2.958662 2.958662 h -4.94562 -4.94561 z m 20.98463,-1.957406 c 0.31804,-0.318041 0.57825,-0.769994 0.57825,-1.00434 0,-0.234346 -0.26021,-0.686299 -0.57825,-1.004341 l -0.57826,-0.578256 h -5.25757 -5.25757 v 1.582597 1.582597 h 5.25757 5.25757 z"
       id="path2" /></g></svg>
